<?xml version="1.0" standalone="no"?>
<!DOCTYPE svg PUBLIC "-//W3C//DTD SVG 20010904//EN"
 "http://www.w3.org/TR/2001/REC-SVG-20010904/DTD/svg10.dtd">
<svg version="1.0" xmlns="http://www.w3.org/2000/svg"
 width="2048.000000pt" height="2048.000000pt" viewBox="0 0 2048.000000 2048.000000"
 preserveAspectRatio="xMidYMid meet">

<g transform="translate(0.000000,2048.000000) scale(0.100000,-0.100000)"
fill="#000000" stroke="none">
<path d="M9910 11783 c-831 -47 -1606 -334 -2242 -829 -62 -48 -176 -151 -254
-228 -290 -290 -397 -475 -398 -686 0 -111 15 -173 75 -296 148 -309 488 -605
963 -838 436 -215 846 -334 1361 -397 220 -26 799 -37 1062 -20 675 46 1260
195 1738 445 594 310 960 709 982 1071 12 198 -51 328 -294 605 -326 372 -791
686 -1328 898 -519 205 -1131 306 -1665 275z m595 -283 c792 -84 1584 -449
2099 -966 145 -146 276 -308 252 -312 -49 -10 -175 52 -366 177 -203 133 -289
166 -364 141 -46 -15 -81 -58 -122 -148 -40 -87 -63 -102 -126 -83 -65 20
-161 124 -233 251 -103 185 -162 258 -272 336 -175 125 -444 192 -675 166
-259 -28 -505 -127 -742 -297 -44 -32 -107 -73 -141 -91 -124 -68 -200 -36
-245 103 -30 90 -42 113 -81 151 -67 66 -160 76 -329 38 -416 -95 -983 -352
-1480 -673 -186 -120 -257 -155 -326 -161 -67 -6 -68 1 -16 86 61 100 156 213
277 331 556 538 1328 879 2175 961 117 11 579 5 715 -10z"/>
</g>
</svg>
